<svg width="19" height="18" viewBox="0 0 19 18" fill="none" xmlns="http://www.w3.org/2000/svg">
<path d="M9.5 1.53003C5.375 1.53003 2 4.89753 2 9.04503C2 12.795 4.745 15.9075 8.33 16.47V11.22H6.425V9.04503H8.33V7.38753C8.33 5.50503 9.4475 4.47003 11.165 4.47003C11.9825 4.47003 12.8375 4.61253 12.8375 4.61253V6.46503H11.8925C10.9625 6.46503 10.67 7.04253 10.67 7.63503V9.04503H12.755L12.4175 11.22H10.67V16.47C12.4373 16.1909 14.0467 15.2892 15.2074 13.9276C16.3682 12.566 17.004 10.8343 17 9.04503C17 4.89753 13.625 1.53003 9.5 1.53003Z" fill="white"/>
</svg>
