<svg width="17" height="16" viewBox="0 0 17 16" fill="none" xmlns="http://www.w3.org/2000/svg">
<path d="M8.5 1.44578C10.6205 1.44578 10.9096 1.44578 11.7771 1.44578C12.5482 1.44578 12.9337 1.63855 13.2229 1.73494C13.6084 1.92771 13.8976 2.0241 14.1867 2.31325C14.4759 2.60241 14.6687 2.89157 14.7651 3.27711C14.8614 3.56627 14.9578 3.95181 15.0542 4.72289C15.0542 5.59036 15.0542 5.78313 15.0542 8C15.0542 10.2169 15.0542 10.4096 15.0542 11.2771C15.0542 12.0482 14.8614 12.4337 14.7651 12.7229C14.5723 13.1084 14.4759 13.3976 14.1867 13.6867C13.8976 13.9759 13.6084 14.1687 13.2229 14.2651C12.9337 14.3614 12.5482 14.4578 11.7771 14.5542C10.9096 14.5542 10.7169 14.5542 8.5 14.5542C6.28313 14.5542 6.09036 14.5542 5.22289 14.5542C4.45181 14.5542 4.06627 14.3614 3.77711 14.2651C3.39157 14.0723 3.10241 13.9759 2.81325 13.6867C2.5241 13.3976 2.33133 13.1084 2.23494 12.7229C2.13855 12.4337 2.04217 12.0482 1.94578 11.2771C1.94578 10.4096 1.94578 10.2169 1.94578 8C1.94578 5.78313 1.94578 5.59036 1.94578 4.72289C1.94578 3.95181 2.13855 3.56627 2.23494 3.27711C2.42771 2.89157 2.5241 2.60241 2.81325 2.31325C3.10241 2.0241 3.39157 1.83133 3.77711 1.73494C4.06627 1.63855 4.45181 1.54217 5.22289 1.44578C6.09036 1.44578 6.37952 1.44578 8.5 1.44578ZM8.5 0C6.28313 0 6.09036 0 5.22289 0C4.35542 0 3.77711 0.192772 3.29518 0.385543C2.81325 0.578314 2.33133 0.867471 1.8494 1.3494C1.36747 1.83133 1.1747 2.21687 0.885543 2.79518C0.692772 3.27711 0.596386 3.85542 0.5 4.72289C0.5 5.59036 0.5 5.87952 0.5 8C0.5 10.2169 0.5 10.4096 0.5 11.2771C0.5 12.1446 0.692772 12.7229 0.885543 13.2048C1.07831 13.6867 1.36747 14.1687 1.8494 14.6506C2.33133 15.1325 2.71687 15.3253 3.29518 15.6145C3.77711 15.8072 4.35542 15.9036 5.22289 16C6.09036 16 6.37952 16 8.5 16C10.6205 16 10.9096 16 11.7771 16C12.6446 16 13.2229 15.8072 13.7048 15.6145C14.1867 15.4217 14.6687 15.1325 15.1506 14.6506C15.6325 14.1687 15.8253 13.7831 16.1145 13.2048C16.3072 12.7229 16.4036 12.1446 16.5 11.2771C16.5 10.4096 16.5 10.1205 16.5 8C16.5 5.87952 16.5 5.59036 16.5 4.72289C16.5 3.85542 16.3072 3.27711 16.1145 2.79518C15.9217 2.31325 15.6325 1.83133 15.1506 1.3494C14.6687 0.867471 14.2831 0.674699 13.7048 0.385543C13.2229 0.192772 12.6446 0.0963856 11.7771 0C10.9096 0 10.7169 0 8.5 0Z" fill="white"/>
<path d="M8.5 3.85542C6.18675 3.85542 4.35542 5.68675 4.35542 8C4.35542 10.3133 6.18675 12.1446 8.5 12.1446C10.8133 12.1446 12.6446 10.3133 12.6446 8C12.6446 5.68675 10.8133 3.85542 8.5 3.85542ZM8.5 10.6988C7.05422 10.6988 5.80121 9.54217 5.80121 8C5.80121 6.55422 6.95783 5.30121 8.5 5.30121C9.94578 5.30121 11.1988 6.45783 11.1988 8C11.1988 9.44578 9.94578 10.6988 8.5 10.6988Z" fill="white"/>
<path d="M12.741 4.72289C13.2733 4.72289 13.7048 4.29136 13.7048 3.75904C13.7048 3.22671 13.2733 2.79518 12.741 2.79518C12.2086 2.79518 11.7771 3.22671 11.7771 3.75904C11.7771 4.29136 12.2086 4.72289 12.741 4.72289Z" fill="white"/>
</svg>
