<svg width="19" height="18" viewBox="0 0 19 18" fill="none" xmlns="http://www.w3.org/2000/svg">
<path d="M14.75 2.25C15.1478 2.25 15.5294 2.40804 15.8107 2.68934C16.092 2.97064 16.25 3.35218 16.25 3.75V14.25C16.25 14.6478 16.092 15.0294 15.8107 15.3107C15.5294 15.592 15.1478 15.75 14.75 15.75H4.25C3.85218 15.75 3.47064 15.592 3.18934 15.3107C2.90804 15.0294 2.75 14.6478 2.75 14.25V3.75C2.75 3.35218 2.90804 2.97064 3.18934 2.68934C3.47064 2.40804 3.85218 2.25 4.25 2.25H14.75ZM14.375 13.875V9.9C14.375 9.25155 14.1174 8.62965 13.6589 8.17112C13.2003 7.7126 12.5785 7.455 11.93 7.455C11.2925 7.455 10.55 7.845 10.19 8.43V7.5975H8.0975V13.875H10.19V10.1775C10.19 9.6 10.655 9.1275 11.2325 9.1275C11.511 9.1275 11.778 9.23812 11.975 9.43504C12.1719 9.63195 12.2825 9.89902 12.2825 10.1775V13.875H14.375ZM5.66 6.42C5.99417 6.42 6.31466 6.28725 6.55095 6.05095C6.78725 5.81466 6.92 5.49417 6.92 5.16C6.92 4.4625 6.3575 3.8925 5.66 3.8925C5.32384 3.8925 5.00144 4.02604 4.76374 4.26374C4.52604 4.50144 4.3925 4.82384 4.3925 5.16C4.3925 5.8575 4.9625 6.42 5.66 6.42ZM6.7025 13.875V7.5975H4.625V13.875H6.7025Z" fill="white"/>
</svg>
