<svg width="19" height="16" viewBox="0 0 19 16" fill="none" xmlns="http://www.w3.org/2000/svg">
<path d="M1.73741 6.95746C6.56923 4.84063 9.79121 3.44509 11.4033 2.77083C16.0063 0.845685 16.9627 0.511267 17.5861 0.500107C17.7232 0.497796 18.0298 0.531965 18.2284 0.693996C18.3961 0.830811 18.4422 1.01563 18.4643 1.14535C18.4864 1.27506 18.5139 1.57056 18.492 1.80145C18.2426 4.43683 17.1633 10.8322 16.6142 13.7839C16.3818 15.0328 15.9244 15.4516 15.4815 15.4926C14.5189 15.5816 13.788 14.8529 12.8558 14.2385C11.397 13.2769 10.5729 12.6783 9.15691 11.74C7.52048 10.6557 8.58131 10.0597 9.5139 9.08566C9.75797 8.83076 13.9988 4.95196 14.0809 4.60009C14.0912 4.55608 14.1007 4.39204 14.0038 4.30543C13.9069 4.21881 13.7639 4.24843 13.6606 4.27199C13.5143 4.30538 11.1839 5.85425 6.66938 8.91859C6.0079 9.37533 5.40875 9.59787 4.87193 9.58621C4.28013 9.57335 3.14175 9.24974 2.29548 8.97313C1.25749 8.63385 0.432524 8.45447 0.504361 7.87827C0.541777 7.57814 0.952793 7.27121 1.73741 6.95746Z" fill="white"/>
</svg>
