<svg width="19" height="18" viewBox="0 0 19 18" fill="none" xmlns="http://www.w3.org/2000/svg">
<path d="M10.205 1.20752V11.835C10.205 12.3979 9.98138 12.9378 9.58333 13.3359C9.18529 13.7339 8.64542 13.9575 8.0825 13.9575C7.51958 13.9575 6.97971 13.7339 6.58167 13.3359C6.18362 12.9378 5.96 12.3979 5.96 11.835C5.96 11.2714 6.18338 10.7308 6.58121 10.3315C6.97904 9.93229 7.51889 9.707 8.0825 9.70502V6.87752C6.76769 6.87752 5.50673 7.39983 4.57702 8.32954C3.64731 9.25925 3.125 10.5202 3.125 11.835C3.125 13.1498 3.64731 14.4108 4.57702 15.3405C5.50673 16.2702 6.76769 16.7925 8.0825 16.7925C9.39731 16.7925 10.6583 16.2702 11.588 15.3405C12.5177 14.4108 13.04 13.1498 13.04 11.835V6.87752L13.19 6.95252C14.0247 7.36609 14.9435 7.58168 15.875 7.58252V4.74752H15.7925C15.006 4.55159 14.3077 4.09808 13.8089 3.45926C13.3101 2.82043 13.0394 2.03303 13.04 1.22252H10.205V1.20752Z" stroke="white" stroke-width="1.5" stroke-miterlimit="10"/>
</svg>
