<svg width="21" height="16" viewBox="0 0 21 16" fill="none" xmlns="http://www.w3.org/2000/svg">
<path d="M20 2.77679C19.75 1.83929 19.125 1.16964 18.25 0.901786C16.75 0.5 10.375 0.5 10.375 0.5C10.375 0.5 4.12501 0.5 2.50001 0.901786C1.62501 1.16964 0.999996 1.83929 0.749996 2.77679C0.499996 4.51786 0.5 8 0.5 8C0.5 8 0.500004 11.4821 0.875004 13.2232C1.125 14.1607 1.75 14.8304 2.625 15.0982C4.125 15.5 10.5 15.5 10.5 15.5C10.5 15.5 16.75 15.5 18.375 15.0982C19.25 14.8304 19.875 14.1607 20.125 13.2232C20.5 11.4821 20.5 8 20.5 8C20.5 8 20.5 4.51786 20 2.77679ZM8.49999 11.2143V4.78572L13.75 8L8.49999 11.2143Z" fill="white"/>
</svg>
